<?xml version="1.0" encoding="utf-8"?>
<svg version="1.1" xmlns:xlink="http://www.w3.org/1999/xlink" width="83px" height="80px" xmlns="http://www.w3.org/2000/svg">
  <defs>
    <mask fill="white" id="clip398">
      <path d="M 37 6.15384615384615  L 37 42.7884615384615  L 63.1145833333333 69.0384615384615  C 59.7202932098766 72.5  55.7576195987654 75.1923076923077  51.2265625 77.1153846153846  C 46.6955054012346 79.0384615384615  41.9162808641975 80  36.8888888888889 80  C 30.1963734567901 80  24.0242091049383 78.349358974359  18.3723958333333 75.0480769230769  C 12.7205825617284 71.7467948717949  8.24556327160494 67.2676282051282  4.94733796296296 61.6105769230769  C 1.64911265432099 55.9535256410256  0 49.775641025641  0 43.0769230769231  C 0 36.3782051282051  1.64911265432099 30.2003205128205  4.94733796296296 24.5432692307692  C 8.24556327160494 18.8862179487179  12.7205825617284 14.4070512820513  18.3723958333333 11.1057692307692  C 24.0242091049383 7.80448717948717  30.1963734567901 6.15384615384615  37 6.15384615384615  Z M 72.0486111111111 69.3269230769231  L 45.8709490740741 43  L 83 43  C 83 48.1089743589744  82.0393518518519 52.8926282051282  80.1180555555556 57.4278846153846  C 78.1967592592593 61.963141025641  75.5069444444445 65.9294871794872  72.0486111111111 69.3269230769231  Z M 74.978587962963 18.3894230769231  C 78.2768132716049 24.0464743589744  79.9259259259259 30.224358974359  79.9259259259259 37  L 43 37  L 43 0  C 49.7295524691358 0  55.9017168209877 1.65064102564103  61.5535300925926 4.95192307692307  C 67.2053433641975 8.25320512820512  71.680362654321 12.7323717948718  74.978587962963 18.3894230769231  Z " fill-rule="evenodd" />
    </mask>
  </defs>
  <g transform="matrix(1 0 0 1 -1663 -826 )">
    <path d="M 37 6.15384615384615  L 37 42.7884615384615  L 63.1145833333333 69.0384615384615  C 59.7202932098766 72.5  55.7576195987654 75.1923076923077  51.2265625 77.1153846153846  C 46.6955054012346 79.0384615384615  41.9162808641975 80  36.8888888888889 80  C 30.1963734567901 80  24.0242091049383 78.349358974359  18.3723958333333 75.0480769230769  C 12.7205825617284 71.7467948717949  8.24556327160494 67.2676282051282  4.94733796296296 61.6105769230769  C 1.64911265432099 55.9535256410256  0 49.775641025641  0 43.0769230769231  C 0 36.3782051282051  1.64911265432099 30.2003205128205  4.94733796296296 24.5432692307692  C 8.24556327160494 18.8862179487179  12.7205825617284 14.4070512820513  18.3723958333333 11.1057692307692  C 24.0242091049383 7.80448717948717  30.1963734567901 6.15384615384615  37 6.15384615384615  Z M 72.0486111111111 69.3269230769231  L 45.8709490740741 43  L 83 43  C 83 48.1089743589744  82.0393518518519 52.8926282051282  80.1180555555556 57.4278846153846  C 78.1967592592593 61.963141025641  75.5069444444445 65.9294871794872  72.0486111111111 69.3269230769231  Z M 74.978587962963 18.3894230769231  C 78.2768132716049 24.0464743589744  79.9259259259259 30.224358974359  79.9259259259259 37  L 43 37  L 43 0  C 49.7295524691358 0  55.9017168209877 1.65064102564103  61.5535300925926 4.95192307692307  C 67.2053433641975 8.25320512820512  71.680362654321 12.7323717948718  74.978587962963 18.3894230769231  Z " fill-rule="nonzero" fill="#3969cf" stroke="none" transform="matrix(1 0 0 1 1663 826 )" />
    <path d="M 37 6.15384615384615  L 37 42.7884615384615  L 63.1145833333333 69.0384615384615  C 59.7202932098766 72.5  55.7576195987654 75.1923076923077  51.2265625 77.1153846153846  C 46.6955054012346 79.0384615384615  41.9162808641975 80  36.8888888888889 80  C 30.1963734567901 80  24.0242091049383 78.349358974359  18.3723958333333 75.0480769230769  C 12.7205825617284 71.7467948717949  8.24556327160494 67.2676282051282  4.94733796296296 61.6105769230769  C 1.64911265432099 55.9535256410256  0 49.775641025641  0 43.0769230769231  C 0 36.3782051282051  1.64911265432099 30.2003205128205  4.94733796296296 24.5432692307692  C 8.24556327160494 18.8862179487179  12.7205825617284 14.4070512820513  18.3723958333333 11.1057692307692  C 24.0242091049383 7.80448717948717  30.1963734567901 6.15384615384615  37 6.15384615384615  Z " stroke-width="2" stroke="#3969cf" fill="none" transform="matrix(1 0 0 1 1663 826 )" mask="url(#clip398)" />
    <path d="M 72.0486111111111 69.3269230769231  L 45.8709490740741 43  L 83 43  C 83 48.1089743589744  82.0393518518519 52.8926282051282  80.1180555555556 57.4278846153846  C 78.1967592592593 61.963141025641  75.5069444444445 65.9294871794872  72.0486111111111 69.3269230769231  Z " stroke-width="2" stroke="#3969cf" fill="none" transform="matrix(1 0 0 1 1663 826 )" mask="url(#clip398)" />
    <path d="M 74.978587962963 18.3894230769231  C 78.2768132716049 24.0464743589744  79.9259259259259 30.224358974359  79.9259259259259 37  L 43 37  L 43 0  C 49.7295524691358 0  55.9017168209877 1.65064102564103  61.5535300925926 4.95192307692307  C 67.2053433641975 8.25320512820512  71.680362654321 12.7323717948718  74.978587962963 18.3894230769231  Z " stroke-width="2" stroke="#3969cf" fill="none" transform="matrix(1 0 0 1 1663 826 )" mask="url(#clip398)" />
  </g>
</svg>