<?xml version="1.0" encoding="utf-8"?>
<svg version="1.1" xmlns:xlink="http://www.w3.org/1999/xlink" width="13px" height="13px" xmlns="http://www.w3.org/2000/svg">
  <g transform="matrix(1 0 0 1 -390 -709 )">
    <path d="M 6.6348897535668 6.12012987012987  L 12.6206225680934 0.126623376623376  C 12.7274102896671 0.0196969696969691  12.817336792045 -0.0168831168831176  12.890402075227 0.0168831168831162  C 12.963467358409 0.0506493506493499  13 0.14069264069264  13 0.287012987012986  L 13 12.712987012987  C 13 12.8593073593074  12.963467358409 12.9493506493507  12.890402075227 12.9831168831169  C 12.817336792045 13.0168831168831  12.7274102896671 12.980303030303  12.6206225680934 12.8733766233766  L 6.6348897535668 6.87987012987013  C 6.58430609597925 6.82922077922078  6.54777345438824 6.77575757575758  6.52529182879377 6.71948051948052  L 6.52529182879377 12.712987012987  C 6.52529182879377 12.8593073593074  6.48875918720277 12.9493506493507  6.41569390402075 12.9831168831169  C 6.34262862083874 13.0168831168831  6.25270211846087 12.980303030303  6.14591439688716 12.8733766233766  L 0.160181582360571 6.87987012987013  C 0.053393860786857 6.77294372294372  0 6.64632034632035  0 6.5  C 0 6.35367965367965  0.053393860786857 6.22705627705628  0.160181582360571 6.12012987012987  L 6.14591439688716 0.126623376623376  C 6.25270211846087 0.0196969696969691  6.34262862083874 -0.0168831168831176  6.41569390402075 0.0168831168831162  C 6.48875918720277 0.0506493506493499  6.52529182879377 0.14069264069264  6.52529182879377 0.287012987012986  L 6.52529182879377 6.28051948051948  C 6.54777345438824 6.22424242424242  6.58430609597925 6.17077922077922  6.6348897535668 6.12012987012987  Z " fill-rule="nonzero" fill="#858688" stroke="none" transform="matrix(1 0 0 1 390 709 )" />
  </g>
</svg>