<?xml version="1.0" encoding="utf-8"?>
<svg version="1.1" xmlns:xlink="http://www.w3.org/1999/xlink" width="31px" height="25px" xmlns="http://www.w3.org/2000/svg">
  <g transform="matrix(1 0 0 1 -1784 -72 )">
    <path d="M 26.543990086741 14.2829306313328  C 26.5567947129285 14.3089114055599  26.5631970260223 14.3478825669005  26.5631970260223 14.3998441153546  L 26.5631970260223 23.7529228371005  C 26.5631970260223 24.0906729020525  26.4415530772408 24.382956612107  26.1982651796778 24.6297739672642  C 25.9549772821148 24.8765913224214  25.6668731928955 25  25.3339529120198 25  L 17.958488228005 25  L 17.958488228005 17.5175370226033  L 13.041511771995 17.5175370226033  L 13.041511771995 25  L 5.66604708798017 25  C 5.3331268071045 25  5.04502271788517 24.8765913224214  4.80173482032218 24.6297739672642  C 4.55844692275919 24.382956612107  4.4368029739777 24.0906729020525  4.4368029739777 23.7529228371005  L 4.4368029739777 14.3998441153546  C 4.4368029739777 14.3868537282411  4.44000413052458 14.3673681475708  4.44640644361834 14.3413873733437  C 4.4528087567121 14.3154065991167  4.45600991325898 14.2959210184464  4.45600991325898 14.2829306313328  L 15.5 5.04676539360873  L 26.543990086741 14.2829306313328  Z M 30.9807930607187 12.5974279033515  C 30.9935976869062 12.7727981293843  30.9487814952499 12.9254351779683  30.8463444857497 13.0553390491037  L 29.6555142503098 14.4972720187062  C 29.5530772408096 14.614185502728  29.4186286658406 14.6856326318524  29.2521685254027 14.7116134060795  L 29.1945477075589 14.7116134060795  C 29.028087567121 14.7116134060795  28.893638992152 14.6661470511821  28.7912019826518 14.5752143413874  L 15.5 3.33203429462198  L 2.2087980173482 14.5752143413874  C 2.05514250309789 14.6791374382957  1.90148698884758 14.724603793193  1.74783147459727 14.7116134060795  C 1.58137133415944 14.6856326318524  1.44692275919042 14.614185502728  1.34448574969021 14.4972720187062  L 0.15365551425031 13.0553390491037  C 0.0512185047501033 12.9254351779683  0.00640231309376295 12.7727981293843  0.0192069392812887 12.5974279033515  C 0.0320115654688146 12.4220576773188  0.102437009500207 12.2824110158483  0.230483271375465 12.17848791894  L 14.0402726146221 0.506625097427904  C 14.4500206526229 0.168875032475965  14.9365964477489 0  15.5 0  C 16.0634035522511 0  16.5499793473771 0.168875032475965  16.9597273853779 0.506625097427904  L 21.6462205700124 4.48168355416991  L 21.6462205700124 0.681995323460638  C 21.6462205700124 0.500129903871133  21.7038413878563 0.350740452065471  21.819083023544 0.233826968043649  C 21.9343246592317 0.116913484021824  22.0815778603883 0.0584567420109122  22.2608426270136 0.0584567420109122  L 25.9485749690211 0.0584567420109122  C 26.1278397356464 0.0584567420109122  26.275092936803 0.116913484021824  26.3903345724907 0.233826968043649  C 26.5055762081784 0.350740452065471  26.5631970260223 0.500129903871133  26.5631970260223 0.681995323460638  L 26.5631970260223 8.63211223694466  L 30.7695167286245 12.17848791894  C 30.8975629904998 12.2824110158483  30.9679884345312 12.4220576773188  30.9807930607187 12.5974279033515  Z " fill-rule="nonzero" fill="#000000" stroke="none" fill-opacity="0.611764705882353" transform="matrix(1 0 0 1 1784 72 )" />
  </g>
</svg>