<?xml version="1.0" encoding="utf-8"?>
<svg version="1.1" xmlns:xlink="http://www.w3.org/1999/xlink" width="23px" height="25px" xmlns="http://www.w3.org/2000/svg">
  <g transform="matrix(1 0 0 1 -1838 -72 )">
    <path d="M 21.7945963541667 8.30829326923077  C 22.5981987847222 9.9208733974359  23 11.6386217948718  23 13.4615384615385  C 23 15.0240384615385  22.6955295138889 16.5164262820513  22.0865885416667 17.9387019230769  C 21.4776475694444 19.3609775641026  20.6590711805556 20.5879407051282  19.630859375 21.6195913461538  C 18.6026475694444 22.6512419871795  17.3797743055556 23.4725560897436  15.9622395833333 24.0835336538462  C 14.5447048611111 24.6945112179487  13.0572916666667 25  11.5 25  C 9.94270833333333 25  8.45529513888889 24.6945112179487  7.03776041666667 24.0835336538462  C 5.62022569444445 23.4725560897436  4.39735243055556 22.6512419871795  3.369140625 21.6195913461538  C 2.34092881944444 20.5879407051282  1.52235243055556 19.3609775641026  0.913411458333333 17.9387019230769  C 0.304470486111111 16.5164262820513  0 15.0240384615385  0 13.4615384615385  C 0 11.6386217948718  0.401801215277778 9.9208733974359  1.20540364583333 8.30829326923077  C 2.00900607638889 6.69571314102564  3.13953993055556 5.34354967948718  4.59700520833333 4.25180288461539  C 5.02625868055556 3.93129006410256  5.5029296875 3.80608974358974  6.02701822916667 3.87620192307692  C 6.55110677083333 3.9463141025641  6.96788194444444 4.19671474358974  7.27734375 4.62740384615385  C 7.59678819444444 5.04807692307692  7.71907552083333 5.52133413461539  7.64420572916667 6.04717548076923  C 7.5693359375 6.57301682692308  7.322265625 6.99619391025641  6.90299479166667 7.31670673076923  C 5.92469618055556 8.05789262820513  5.16851128472222 8.96434294871795  4.63444010416667 10.0360576923077  C 4.10036892361111 11.1077724358974  3.83333333333333 12.2495993589744  3.83333333333333 13.4615384615385  C 3.83333333333333 14.5032051282051  4.03548177083333 15.4972956730769  4.43977864583333 16.4438100961538  C 4.84407552083333 17.3903245192308  5.390625 18.2091346153846  6.07942708333333 18.9002403846154  C 6.76822916666667 19.5913461538462  7.58430989583333 20.1397235576923  8.52766927083333 20.5453725961538  C 9.47102864583333 20.9510216346154  10.4618055555556 21.1538461538462  11.5 21.1538461538462  C 12.5381944444444 21.1538461538462  13.5289713541667 20.9510216346154  14.4723307291667 20.5453725961538  C 15.4156901041667 20.1397235576923  16.2317708333333 19.5913461538462  16.9205729166667 18.9002403846154  C 17.609375 18.2091346153846  18.1559244791667 17.3903245192308  18.5602213541667 16.4438100961538  C 18.9645182291667 15.4972956730769  19.1666666666667 14.5032051282051  19.1666666666667 13.4615384615385  C 19.1666666666667 12.2495993589744  18.8996310763889 11.1077724358974  18.3655598958333 10.0360576923077  C 17.8314887152778 8.96434294871795  17.0753038194444 8.05789262820513  16.0970052083333 7.31670673076923  C 15.677734375 6.99619391025641  15.4306640625 6.57301682692308  15.3557942708333 6.04717548076923  C 15.2809244791667 5.52133413461539  15.4032118055556 5.04807692307692  15.72265625 4.62740384615385  C 16.0321180555556 4.19671474358974  16.4513888888889 3.9463141025641  16.98046875 3.87620192307692  C 17.5095486111111 3.80608974358974  17.9837239583333 3.93129006410256  18.4029947916667 4.25180288461539  C 19.8604600694444 5.34354967948718  20.9909939236111 6.69571314102564  21.7945963541667 8.30829326923077  Z M 12.84765625 0.570913461538461  C 13.2269965277778 0.951522435897434  13.4166666666667 1.40224358974359  13.4166666666667 1.92307692307692  L 13.4166666666667 11.5384615384615  C 13.4166666666667 12.0592948717949  13.2269965277778 12.510016025641  12.84765625 12.890625  C 12.4683159722222 13.271233974359  12.0190972222222 13.4615384615385  11.5 13.4615384615385  C 10.9809027777778 13.4615384615385  10.5316840277778 13.271233974359  10.15234375 12.890625  C 9.77300347222222 12.510016025641  9.58333333333333 12.0592948717949  9.58333333333333 11.5384615384615  L 9.58333333333333 1.92307692307692  C 9.58333333333333 1.40224358974359  9.77300347222222 0.951522435897434  10.15234375 0.570913461538461  C 10.5316840277778 0.190304487179488  10.9809027777778 0  11.5 0  C 12.0190972222222 0  12.4683159722222 0.190304487179488  12.84765625 0.570913461538461  Z " fill-rule="nonzero" fill="#636363" stroke="none" transform="matrix(1 0 0 1 1838 72 )" />
  </g>
</svg>