<?xml version="1.0" encoding="utf-8"?>
<svg version="1.1" xmlns:xlink="http://www.w3.org/1999/xlink" width="21px" height="16px" xmlns="http://www.w3.org/2000/svg">
  <g transform="matrix(1 0 0 1 -1541 -78 )">
    <path d="M 3.84375 12.2727272727273  C 4.28125 12.6969696969697  4.5 13.2121212121212  4.5 13.8181818181818  C 4.5 14.4242424242424  4.28125 14.9393939393939  3.84375 15.3636363636364  C 3.40625 15.7878787878788  2.875 16  2.25 16  C 1.625 16  1.09375 15.7878787878788  0.65625 15.3636363636364  C 0.21875 14.9393939393939  0 14.4242424242424  0 13.8181818181818  C 0 13.2121212121212  0.21875 12.6969696969697  0.65625 12.2727272727273  C 1.09375 11.8484848484848  1.625 11.6363636363636  2.25 11.6363636363636  C 2.875 11.6363636363636  3.40625 11.8484848484848  3.84375 12.2727272727273  Z M 3.84375 6.45454545454546  C 4.28125 6.87878787878788  4.5 7.39393939393939  4.5 8  C 4.5 8.60606060606061  4.28125 9.12121212121212  3.84375 9.54545454545455  C 3.40625 9.96969696969697  2.875 10.1818181818182  2.25 10.1818181818182  C 1.625 10.1818181818182  1.09375 9.96969696969697  0.65625 9.54545454545455  C 0.21875 9.12121212121212  0 8.60606060606061  0 8  C 0 7.39393939393939  0.21875 6.87878787878788  0.65625 6.45454545454546  C 1.09375 6.03030303030303  1.625 5.81818181818182  2.25 5.81818181818182  C 2.875 5.81818181818182  3.40625 6.03030303030303  3.84375 6.45454545454546  Z M 20.888671875 12.4715909090909  C 20.962890625 12.5435606060606  21 12.6287878787879  21 12.7272727272727  L 21 14.9090909090909  C 21 15.0075757575758  20.962890625 15.092803030303  20.888671875 15.1647727272727  C 20.814453125 15.2367424242424  20.7265625 15.2727272727273  20.625 15  L 6.375 15  C 6.2734375 15.2727272727273  6.185546875 15.2367424242424  6.111328125 15.1647727272727  C 6.037109375 15.092803030303  6 15.0075757575758  6 14.9090909090909  L 6 12.7272727272727  C 6 12.6287878787879  6.037109375 12.5435606060606  6.111328125 12.4715909090909  C 6.185546875 12.3996212121212  6.2734375 12.3636363636364  6.375 12.3636363636364  L 20.625 12.3636363636364  C 20.7265625 12.3636363636364  20.814453125 12.3996212121212  20.888671875 12.4715909090909  Z M 3.84375 0.636363636363637  C 4.28125 1.06060606060606  4.5 1.57575757575757  4.5 2.18181818181818  C 4.5 2.78787878787879  4.28125 3.3030303030303  3.84375 3.72727272727273  C 3.40625 4.15151515151515  2.875 4.36363636363636  2.25 4.36363636363636  C 1.625 4.36363636363636  1.09375 4.15151515151515  0.65625 3.72727272727273  C 0.21875 3.3030303030303  0 2.78787878787879  0 2.18181818181818  C 0 1.57575757575757  0.21875 1.06060606060606  0.65625 0.636363636363637  C 1.09375 0.212121212121211  1.625 0  2.25 0  C 2.875 0  3.40625 0.212121212121211  3.84375 0.636363636363637  Z M 20.888671875 6.65340909090909  C 20.962890625 6.72537878787879  21 6.81060606060606  21 6.90909090909091  L 21 9.09090909090909  C 21 9.18939393939394  20.962890625 9.27462121212121  20.888671875 9.34659090909091  C 20.814453125 9.41856060606061  20.7265625 9.45454545454545  20.625 9.45454545454545  L 6.375 9.45454545454545  C 6.2734375 9.45454545454545  6.185546875 9.41856060606061  6.111328125 9.34659090909091  C 6.037109375 9.27462121212121  6 9.18939393939394  6 9.09090909090909  L 6 6.90909090909091  C 6 6.81060606060606  6.037109375 6.72537878787879  6.111328125 6.65340909090909  C 6.185546875 6.58143939393939  6.2734375 6.54545454545455  6.375 6.54545454545455  L 20.625 6.54545454545455  C 20.7265625 6.54545454545455  20.814453125 6.58143939393939  20.888671875 6.65340909090909  Z M 20.888671875 0.835227272727273  C 20.962890625 0.907196969696969  21 0.992424242424242  21 1.09090909090909  L 21 3.27272727272727  C 21 3.37121212121212  20.962890625 3.45643939393939  20.888671875 3.52840909090909  C 20.814453125 3.60037878787879  20.7265625 3.63636363636364  20.625 3.63636363636364  L 6.375 3.63636363636364  C 6.2734375 3.63636363636364  6.185546875 3.60037878787879  6.111328125 3.52840909090909  C 6.037109375 3.45643939393939  6 3.37121212121212  6 3.27272727272727  L 6 1.09090909090909  C 6 0.992424242424242  6.037109375 0.907196969696969  6.111328125 0.835227272727273  C 6.185546875 0.763257575757574  6.2734375 0.727272727272727  6.375 1  L 20.625 1  C 20.7265625 0.727272727272727  20.814453125 0.763257575757574  20.888671875 0.835227272727273  Z " fill-rule="nonzero" fill="#636363" stroke="none" transform="matrix(1 0 0 1 1541 78 )" />
  </g>
</svg>