<?xml version="1.0" encoding="utf-8"?>
<svg version="1.1" xmlns:xlink="http://www.w3.org/1999/xlink" width="18px" height="17px" xmlns="http://www.w3.org/2000/svg">
  <g transform="matrix(1 0 0 1 -1464 -78 )">
    <path d="M 17.0816326530612 3.39778645833333  C 17.3553421368547 3.50846354166667  17.5678271308523 3.66710069444444  17.719087635054 3.87369791666667  C 18.0072028811525 4.29427083333333  18.0720288115246 4.77018229166667  17.9135654261705 5.30143229166667  L 14.9423769507803 15.3287760416667  C 14.8055222088836 15.8009982638889  14.5300120048019 16.1975911458333  14.1158463385354 16.5185546875  C 13.7016806722689 16.8395182291667  13.2605042016807 17  12.7923169267707 17  L 2.81992797118848 17  C 2.26530612244898 17  1.73049219687875 16.8026258680556  1.21548619447779 16.4078776041667  C 0.700480192076831 16.0131293402778  0.342136854741897 15.5279947916667  0.140456182472989 14.9524739583333  C -0.0324129651860744 14.4581163194444  -0.0396158463385354 13.9895833333333  0.118847539015606 13.546875  C 0.118847539015606 13.5173611111111  0.129651860744298 13.4177517361111  0.151260504201681 13.248046875  C 0.172869147659064 13.0783420138889  0.187274909963986 12.9418402777778  0.194477791116447 12.8385416666667  C 0.201680672268908 12.7795138888889  0.190876350540216 12.7001953125  0.162064825930372 12.6005859375  C 0.133253301320528 12.5009765625  0.122448979591837 12.4290364583333  0.129651860744298 12.384765625  C 0.14405762304922 12.3036024305556  0.172869147659064 12.2261284722222  0.21608643457383 12.15234375  C 0.259303721488595 12.0785590277778  0.318727490996399 11.9918619791667  0.394357743097239 11.8922526041667  C 0.469987995198079 11.7926432291667  0.529411764705882 11.7059461805556  0.572629051620648 11.6321614583333  C 0.738295318127251 11.3517795138889  0.900360144057623 11.0142144097222  1.05882352941176 10.6194661458333  C 1.21728691476591 10.2247178819444  1.32533013205282 9.88715277777778  1.38295318127251 9.60677083333333  C 1.40456182472989 9.53298611111111  1.40636254501801 9.42230902777778  1.38835534213685 9.27473958333333  C 1.3703481392557 9.12717013888889  1.36854741896759 9.02387152777778  1.38295318127251 8.96484375  C 1.40456182472989 8.88368055555556  1.46578631452581 8.78038194444444  1.56662665066026 8.65494791666667  C 1.66746698679472 8.52951388888889  1.72869147659064 8.44466145833333  1.75030012004802 8.400390625  C 1.9015606242497 8.134765625  2.05282112845138 7.79535590277778  2.20408163265306 7.38216145833333  C 2.35534213685474 6.96896701388889  2.4453781512605 6.63693576388889  2.47418967587035 6.38606770833333  C 2.48139255702281 6.31966145833333  2.47238895558223 6.20160590277778  2.44717887154862 6.03190104166667  C 2.42196878751501 5.86219618055556  2.42376950780312 5.75889756944444  2.45258103241297 5.72200520833333  C 2.48139255702281 5.62608506944444  2.56062424969988 5.51356336805555  2.69027611044418 5.38444010416667  C 2.81992797118848 5.25531684027778  2.89915966386555 5.17230902777778  2.92797118847539 5.13541666666667  C 3.06482593037215 4.94357638888889  3.21788715486195 4.6318359375  3.38715486194478 4.2001953125  C 3.55642256902761 3.7685546875  3.65546218487395 3.41254340277778  3.68427370948379 3.13216145833333  C 3.69147659063625 3.07313368055555  3.68067226890756 2.97905815972222  3.65186074429772 2.84993489583333  C 3.62304921968788 2.72081163194444  3.61584633853541 2.623046875  3.63025210084034 2.556640625  C 3.64465786314526 2.49761284722222  3.67707082833133 2.43120659722222  3.72749099639856 2.357421875  C 3.77791116446579 2.28363715277778  3.84273709483794 2.19878472222222  3.92196878751501 2.10286458333333  C 4.00120048019208 2.00694444444444  4.06242496998799 1.92947048611111  4.10564225690276 1.87044270833333  C 4.16326530612245 1.78190104166667  4.22268907563025 1.66937934027778  4.28391356542617 1.53287760416667  C 4.34513805522209 1.39637586805555  4.39915966386555 1.26725260416667  4.44597839135654 1.1455078125  C 4.49279711884754 1.02376302083333  4.55042016806723 0.890950520833333  4.61884753901561 0.7470703125  C 4.68727490996399 0.603190104166667  4.75750300120048 0.48513454861111  4.82953181272509 0.392903645833333  C 4.9015606242497 0.300672743055553  4.99699879951981 0.213975694444443  5.11584633853541 0.1328125  C 5.23469387755102 0.0516493055555532  5.36434573829532 0.00922309027777757  5.50480192076831 0.0055338541666673  C 5.6452581032413 0.00184461805555325  5.81632653061225 0.0221354166666673  6.01800720288115 0.06640625  L 6.00720288115246 0.099609375  C 6.28091236494598 0.033203125  6.46458583433373 0  6.55822328931573 0  L 14.7803121248499 0  C 15.3133253301321 0  15.7238895558223 0.206597222222221  16.0120048019208 0.619791666666667  C 16.3001200480192 1.03298611111111  16.3649459783914 1.51258680555555  16.2064825930372 2.05859375  L 13.2460984393757 12.0859375  C 12.9867947178872 12.9639756944444  12.7292917166867 13.5302734375  12.4735894357743 13.7848307291667  C 12.2178871548619 14.0393880208333  11.7551020408163 14.1666666666667  11.0852340936375 14.1666666666667  L 1.69627851140456 14.1666666666667  C 1.50180072028812 14.1666666666667  1.36494597839136 14.2220052083333  1.28571428571429 14.3326822916667  C 1.20648259303721 14.4507378472222  1.20288115246098 14.609375  1.27490996398559 14.80859375  C 1.44777911164466 15.3250868055556  1.96638655462185 15.5833333333333  2.83073229291717 15.5833333333333  L 12.8031212484994 15.5833333333333  C 13.0120048019208 15.5833333333333  13.2136854741897 15.5261501736111  13.4081632653061 15.4117838541667  C 13.6026410564226 15.2974175347222  13.7286914765906 15.1443142361111  13.7863145258103 14.9524739583333  L 17.0276110444178 4.02864583333333  C 17.078031212485 3.86631944444444  17.0960384153661 3.65603298611111  17.0816326530612 3.39778645833333  Z M 6.45018007202881 3.1875  L 6.22328931572629 3.89583333333333  C 6.19447779111645 3.99175347222222  6.20168067226891 4.07476128472222  6.24489795918367 4.14485677083333  C 6.28811524609844 4.21495225694444  6.36014405762305 4.25  6.4609843937575 4.25  L 13.0300120048019 4.25  C 13.1236494597839 4.25  13.2154861944778 4.21495225694444  13.3055222088836 4.14485677083333  C 13.3955582232893 4.07476128472222  13.4549819927971 3.99175347222222  13.483793517407 3.89583333333333  L 13.7106842737095 3.1875  C 13.7394957983193 3.09157986111111  13.7322929171669 3.00857204861111  13.6890756302521 2.9384765625  C 13.6458583433373 2.86838107638889  13.5738295318127 2.83333333333333  13.4729891956783 2.83333333333333  L 6.90396158463385 2.83333333333333  C 6.81032412965186 2.83333333333333  6.71848739495798 2.86838107638889  6.62845138055222 2.9384765625  C 6.53841536614646 3.00857204861111  6.47899159663866 3.09157986111111  6.45018007202881 3.1875  Z M 5.55342136854742 6.02083333333333  L 5.3265306122449 6.72916666666667  C 5.29771908763505 6.82508680555556  5.30492196878752 6.90809461805556  5.34813925570228 6.97819010416667  C 5.39135654261705 7.04828559027778  5.46338535414166 7.08333333333333  5.56422569027611 7.08333333333333  L 12.1332533013205 7.08333333333333  C 12.2268907563025 7.08333333333333  12.3187274909964 7.04828559027778  12.4087635054022 6.97819010416667  C 12.4987995198079 6.90809461805556  12.5582232893157 6.82508680555556  12.5870348139256 6.72916666666667  L 12.8139255702281 6.02083333333333  C 12.8427370948379 5.92491319444444  12.8355342136855 5.84190538194444  12.7923169267707 5.77180989583333  C 12.7490996398559 5.70171440972222  12.6770708283313 5.66666666666667  12.5762304921969 5.66666666666667  L 6.00720288115246 5.66666666666667  C 5.91356542617047 5.66666666666667  5.82172869147659 5.70171440972222  5.73169267707083 5.77180989583333  C 5.64165666266507 5.84190538194444  5.58223289315726 5.92491319444444  5.55342136854742 6.02083333333333  Z " fill-rule="nonzero" fill="#636363" stroke="none" transform="matrix(1 0 0 1 1464 78 )" />
  </g>
</svg>