<?xml version="1.0" encoding="utf-8"?>
<svg version="1.1" xmlns:xlink="http://www.w3.org/1999/xlink" width="17px" height="11px" xmlns="http://www.w3.org/2000/svg">
  <g transform="matrix(1 0 0 1 -1611 -81 )">
    <path d="M 1.13333333333333 9.9  L 7.93333333333333 9.9  L 10.9083333333333 6.6  L 4.10833333333333 6.6  L 1.13333333333333 9.9  Z M 16.48203125 0.176171875  C 16.66796875 0.293619791666666  16.8081597222222 0.449739583333332  16.9026041666667 0.64453125  C 16.9911458333333 0.839322916666665  17.0191840277778 1.044140625  16.98671875 1.258984375  C 16.9542534722222 1.473828125  16.8642361111111 1.66145833333333  16.7166666666667 1.821875  L 8.78333333333334 10.621875  C 8.55902777777778 10.8739583333333  8.27569444444445 11  7.93333333333333 11  L 1.13333333333333 11  C 0.909027777777778 11  0.70390625 10.9412760416667  0.51796875 10.823828125  C 0.33203125 10.7063802083333  0.191840277777778 10.5502604166667  0.0973958333333333 10.35546875  C 0.00885416666666666 10.1606770833333  -0.0191840277777778 9.955859375  0.01328125 9.741015625  C 0.0457465277777778 9.526171875  0.135763888888889 9.33854166666667  0.283333333333333 9.178125  L 8.21666666666667 0.378125  C 8.44097222222222 0.126041666666666  8.72430555555556 0  9.06666666666667 0  L 15.8666666666667 0  C 16.0909722222222 0  16.29609375 0.0587239583333324  16.48203125 0.176171875  Z " fill-rule="nonzero" fill="#636363" stroke="none" transform="matrix(1 0 0 1 1611 81 )" />
  </g>
</svg>